<?xml version="1.0" encoding="utf-8"?>
<!-- Svg Vector Icons : http://www.onlinewebfonts.com/icon -->
<!DOCTYPE svg PUBLIC "-//W3C//DTD SVG 1.1//EN" "http://www.w3.org/Graphics/SVG/1.1/DTD/svg11.dtd">
<svg version="1.1" xmlns="http://www.w3.org/2000/svg" xmlns:xlink="http://www.w3.org/1999/xlink" x="0px" y="0px" viewBox="0 0 1000 1000" enable-background="new 0 0 1000 1000" xml:space="preserve">
<metadata> Svg Vector Icons : http://www.onlinewebfonts.com/icon </metadata>
<g><path d="M975,25C955,5,922.7,5,902.8,25L500,427.7L97.2,25C77.3,5,44.9,5,24.9,25C5,44.9,5,77.3,24.9,97.3L427.7,500L24.9,902.8C5,922.7,5,955,24.9,975c10,10,23.1,15,36.2,15s26.1-5,36.1-15L500,572.3L902.8,975c10,10,23,15,36.1,15c13.1,0,26.2-5,36.1-15c20-20,20-52.3,0-72.2L572.2,500L975,97.3C995,77.3,995,44.9,975,25L975,25z"/></g>
</svg>